<svg xmlns="http://www.w3.org/2000/svg" viewBox="0 0 326.81 316.44"><defs><style>.cls-1{fill:#203543;}.cls-2{fill:#262262;}.cls-3{fill:#ed1c24;}.cls-4{fill:#4d5766;}.cls-5{fill:#facf56;}.cls-6{fill:#231f20;}</style></defs><g id="Layer_2" data-name="Layer 2"><g id="Layer_1-2" data-name="Layer 1"><ellipse class="cls-1" cx="196.96" cy="49.64" rx="7.4" ry="4.93"/><path class="cls-2" d="M233.75,163.72h26.62a26.08,26.08,0,0,0,10.6-1.89,14.21,14.21,0,0,0,6.48-5.42,15.52,15.52,0,0,0,2.24-8.48c0-5-1.61-8.72-4.83-11.07s-8.05-3.54-14.49-3.54H245.53v95.19h19.08A49.7,49.7,0,0,0,277,227.09a16.6,16.6,0,0,0,8.83-5.3q3.3-3.89,3.3-11.19a14.66,14.66,0,0,0-1.88-7.77,14.15,14.15,0,0,0-5.3-5,23.78,23.78,0,0,0-7.78-2.59,60,60,0,0,0-9.54-.71H233.75v-25h36.51a105.57,105.57,0,0,1,23.8,2.71,73.5,73.5,0,0,1,21.44,8.48,45.91,45.91,0,0,1,15.43,14.84q5.77,9.08,5.78,21.79,0,16.5-8,26.63t-22.85,14.72q-14.83,4.61-35.58,4.6H199.82V98.45H266q17.67,0,31.46,4.72t21.79,14q8,9.31,8,23.45,0,13.43-8,23T297.48,178Q283.7,182.8,266,182.8H233.75Z" transform="translate(-9.89)"/><path class="cls-2" d="M112.85,182.8H80.57q-17.67,0-31.45-4.83T27.33,163.6q-8-9.54-8-23,0-14.15,8-23.45t21.79-14q13.79-4.71,31.45-4.72h66.21V263.38H76.33q-20.73,0-35.57-4.6T17.9,244.06q-8-10.12-8-26.63,0-12.72,5.78-21.79A45.91,45.91,0,0,1,31.1,180.8a73.5,73.5,0,0,1,21.44-8.48,105.55,105.55,0,0,1,23.79-2.71h36.52v25H82a59.87,59.87,0,0,0-9.54.71,23.78,23.78,0,0,0-7.78,2.59,14.15,14.15,0,0,0-5.3,5,14.66,14.66,0,0,0-1.88,7.77q0,7.31,3.29,11.19a16.67,16.67,0,0,0,8.84,5.3A49.64,49.64,0,0,0,82,228.51h19.08V133.32H86.23q-9.66,0-14.49,3.54c-3.22,2.35-4.83,6-4.83,11.07a15.52,15.52,0,0,0,2.24,8.48,14.21,14.21,0,0,0,6.48,5.42,26,26,0,0,0,10.6,1.89h26.62Z" transform="translate(-9.89)"/><path class="cls-3" d="M116.5,269.16a30.06,30.06,0,0,0,11.92,2.63,18.65,18.65,0,0,0,12.07-4.71q5.67-4.72,5.68-16.64V54.64h59.08V263.19q0,14.7-5.69,25A45.16,45.16,0,0,1,184,304.66a69.45,69.45,0,0,1-22.47,9,124.33,124.33,0,0,1-26.76,2.77A101.72,101.72,0,0,1,112.2,314a135.22,135.22,0,0,1-20-6.1,139.37,139.37,0,0,1-15.94-7.49L106,263.19A51.7,51.7,0,0,0,116.5,269.16Z" transform="translate(-9.89)"/><path class="cls-1" d="M176.93,75.7h0c-19.27,0-34.9-8.64-34.9-22.48V30.74h69.8V53.22C211.83,64.85,196.21,75.7,176.93,75.7Z" transform="translate(-9.89)"/><path class="cls-4" d="M225.39,22.46,183,1.72a16.89,16.89,0,0,0-14.84,0L125.7,22.46A7.32,7.32,0,0,0,126,35.78l5.67,2.43L168.9,54.13a16.86,16.86,0,0,0,13.29,0l37.19-15.92,5.67-2.42a7.33,7.33,0,0,0,.34-13.33Z" transform="translate(-9.89)"/><path class="cls-5" d="M211.06,86.52a2.33,2.33,0,0,1-2.33-2.33v-41L176,26.35a2.33,2.33,0,1,1,2.12-4.14l35.29,18.1V84.19A2.32,2.32,0,0,1,211.06,86.52Z" transform="translate(-9.89)"/><circle class="cls-5" cx="201.62" cy="87.67" r="8.99"/><path class="cls-6" d="M234.92,85.23a3.06,3.06,0,0,0,1.2,1.11,3.4,3.4,0,0,0,1.64.4,4.62,4.62,0,0,0,1.44-.23,5,5,0,0,0,1.26-.63,3.58,3.58,0,0,0,.95-1v3.94a5.18,5.18,0,0,1-1.61.82,8,8,0,0,1-2.36.31,8.07,8.07,0,0,1-3.66-.81,6.41,6.41,0,0,1-2.54-9,6.2,6.2,0,0,1,2.54-2.23,8.07,8.07,0,0,1,3.66-.81,8,8,0,0,1,2.36.31,6.18,6.18,0,0,1,1.61.76v4a3.42,3.42,0,0,0-1-1,5.18,5.18,0,0,0-1.3-.62,4.7,4.7,0,0,0-1.37-.21,3.22,3.22,0,0,0-1.64.43,3.16,3.16,0,0,0-1.2,1.15,3.2,3.2,0,0,0-.43,1.63A3.34,3.34,0,0,0,234.92,85.23Z" transform="translate(-9.89)"/><path class="cls-6" d="M244.52,80.12A6.13,6.13,0,0,1,247,77.87a8.55,8.55,0,0,1,7.22,0,6.39,6.39,0,0,1,2.52,2.25,6.25,6.25,0,0,1,.92,3.4,6.18,6.18,0,0,1-.92,3.38,6.24,6.24,0,0,1-2.52,2.25,8.45,8.45,0,0,1-7.22,0,6,6,0,0,1-2.52-2.25,6.17,6.17,0,0,1-.91-3.38A6.24,6.24,0,0,1,244.52,80.12Zm3.64,5a2.89,2.89,0,0,0,1.05,1.06,2.82,2.82,0,0,0,1.44.38,2.87,2.87,0,0,0,1.44-.38,2.72,2.72,0,0,0,1-1.06,3.25,3.25,0,0,0,.39-1.65,3.37,3.37,0,0,0-.39-1.66,2.75,2.75,0,0,0-1-1.07,2.87,2.87,0,0,0-1.44-.38,2.82,2.82,0,0,0-1.44.38,2.92,2.92,0,0,0-1.05,1.07,3.27,3.27,0,0,0-.4,1.66A3.15,3.15,0,0,0,248.16,85.17Z" transform="translate(-9.89)"/><path class="cls-6" d="M260.26,80a5.84,5.84,0,0,1,2.19-2.17,5.72,5.72,0,0,1,2.84-.75,4.88,4.88,0,0,1,2.74.78,5.28,5.28,0,0,1,1.89,2.21,8.78,8.78,0,0,1,0,6.87A5.27,5.27,0,0,1,268,89.18a4.88,4.88,0,0,1-2.74.78,5.79,5.79,0,0,1-5-2.94,7.73,7.73,0,0,1,0-7Zm3.82,5.19a3,3,0,0,0,1.07,1.1,2.9,2.9,0,0,0,1.48.39,2.71,2.71,0,0,0,1.35-.38,3,3,0,0,0,1.09-1.08,3.33,3.33,0,0,0,.42-1.71,3.3,3.3,0,0,0-.42-1.7A3,3,0,0,0,268,80.74a2.71,2.71,0,0,0-1.35-.38,2.9,2.9,0,0,0-1.48.39,3,3,0,0,0-1.07,1.1,3.71,3.71,0,0,0,0,3.35Zm9.46-16.42V89.69h-4.05V68.78Z" transform="translate(-9.89)"/><path class="cls-6" d="M277.13,71.16a2.59,2.59,0,0,1,3.34,0,2,2,0,0,1,.68,1.56,2,2,0,0,1-.68,1.58,2.56,2.56,0,0,1-3.34,0,2,2,0,0,1-.7-1.58A2,2,0,0,1,277.13,71.16Zm3.62,6.2V89.69h-3.91V77.36Z" transform="translate(-9.89)"/><path class="cls-6" d="M291.67,80.5a1.56,1.56,0,0,0-1.38-.59,2.41,2.41,0,0,0-1.13.26,1.88,1.88,0,0,0-.75.78,2.72,2.72,0,0,0-.26,1.23v7.51h-4.08V77.36h4.08v1.85a3.85,3.85,0,0,1,1.46-1.58,4.27,4.27,0,0,1,2.29-.56,4.18,4.18,0,0,1,3.35,1.23,5.22,5.22,0,0,1,1,3.46v7.93h-4.2V82.18A2.85,2.85,0,0,0,291.67,80.5Z" transform="translate(-9.89)"/><path class="cls-6" d="M299.6,79.88a5.48,5.48,0,0,1,2.19-2.09,6,6,0,0,1,2.84-.7,5.11,5.11,0,0,1,2.74.74A5,5,0,0,1,309.26,80a8.58,8.58,0,0,1,0,6.79,5,5,0,0,1-1.89,2.15,5.1,5.1,0,0,1-2.74.73,5.89,5.89,0,0,1-2.84-.71,5.58,5.58,0,0,1-2.19-2.1,7.59,7.59,0,0,1,0-6.94Zm3.34,10.69a2.6,2.6,0,0,0,.44,1.26,2.21,2.21,0,0,0,1,.77,3.59,3.59,0,0,0,1.39.25,3.17,3.17,0,0,0,1.56-.39,2.86,2.86,0,0,0,1.11-1.15,3.89,3.89,0,0,0,.41-1.89V77.36h3.89V89.42a7.17,7.17,0,0,1-.92,3.83,5.58,5.58,0,0,1-2.46,2.16,8.21,8.21,0,0,1-3.43.68,8.93,8.93,0,0,1-3.76-.69,5.06,5.06,0,0,1-2.24-2,6.54,6.54,0,0,1-.88-2.88Zm.48-5.59a2.74,2.74,0,0,0,1.07,1,3.19,3.19,0,0,0,1.48.34,3,3,0,0,0,1.35-.33,2.77,2.77,0,0,0,1.09-1,3.05,3.05,0,0,0,.42-1.66,3.16,3.16,0,0,0-.25-1.31,2.78,2.78,0,0,0-1.59-1.5,2.83,2.83,0,0,0-1-.19,3.2,3.2,0,0,0-1.48.35,2.69,2.69,0,0,0-1.07,1,3.5,3.5,0,0,0,0,3.25Z" transform="translate(-9.89)"/><path class="cls-6" d="M67,78.4l18.52-8.6v4.09L71.54,80v.08l14,6.14v4.09L67,81.72Z" transform="translate(-9.89)"/><path class="cls-6" d="M88.41,91.87l8.26-28h3.9l-8.26,28Z" transform="translate(-9.89)"/><path class="cls-6" d="M121.33,81.84l-18.52,8.49V86.24l14.31-6.14V80l-14.31-6.13V69.8l18.52,8.49Z" transform="translate(-9.89)"/><path class="cls-6" d="M218.9,286.62a5.59,5.59,0,0,0,1.57,1.26,4.22,4.22,0,0,0,1.93.44,3.05,3.05,0,0,0,2.09-.7,2.24,2.24,0,0,0,.8-1.79,2.65,2.65,0,0,0-.5-1.68,4,4,0,0,0-1.41-1.07,20.48,20.48,0,0,0-2.08-.87,14,14,0,0,1-1.55-.66,7.94,7.94,0,0,1-1.64-1,5.15,5.15,0,0,1-1.28-1.56,5,5,0,0,1,.26-4.87,5.17,5.17,0,0,1,2.11-1.77,6.93,6.93,0,0,1,3-.63,6.56,6.56,0,0,1,2.9.59,6.65,6.65,0,0,1,2.07,1.5,7.53,7.53,0,0,1,1.33,1.9l-2.57,1.45a5.66,5.66,0,0,0-.89-1.3,4,4,0,0,0-1.24-1,3.64,3.64,0,0,0-1.65-.36,2.67,2.67,0,0,0-1.93.6,1.91,1.91,0,0,0-.62,1.41,2.1,2.1,0,0,0,.44,1.3,4.42,4.42,0,0,0,1.39,1.09,18.92,18.92,0,0,0,2.43,1,12.37,12.37,0,0,1,1.68.75,7.06,7.06,0,0,1,1.54,1.14,5.55,5.55,0,0,1,1.11,1.59,5.12,5.12,0,0,1,.42,2.15,5.34,5.34,0,0,1-.51,2.36,5.1,5.1,0,0,1-1.4,1.75,6.55,6.55,0,0,1-2,1.1,7,7,0,0,1-2.32.39,7.14,7.14,0,0,1-3.07-.66,8,8,0,0,1-2.45-1.75,9.09,9.09,0,0,1-1.66-2.39l2.36-1.63A12.6,12.6,0,0,0,218.9,286.62Z" transform="translate(-9.89)"/><path class="cls-6" d="M234.35,269.85v20.91h-2.84V269.85Zm8.07,8.58-5.31,5.09,5.85,7.24h-3.52l-5.89-7.24,5.33-5.09Z" transform="translate(-9.89)"/><path class="cls-6" d="M245.33,272.27a1.87,1.87,0,0,1,2.57,0,1.76,1.76,0,0,1,0,2.5,1.85,1.85,0,0,1-2.57,0,1.7,1.7,0,0,1,0-2.5Zm2.69,6.16v12.33h-2.84V278.43Z" transform="translate(-9.89)"/><path class="cls-6" d="M254.91,269.85v20.91H252V269.85Z" transform="translate(-9.89)"/><path class="cls-6" d="M261.5,269.85v20.91h-2.89V269.85Z" transform="translate(-9.89)"/><path class="cls-6" d="M267,287.82a4.49,4.49,0,0,0,1.22.7,3.58,3.58,0,0,0,1.24.23,1.91,1.91,0,0,0,1.21-.35,1.15,1.15,0,0,0,.45-1,1.35,1.35,0,0,0-.35-.92,2.81,2.81,0,0,0-1-.67c-.41-.19-.89-.38-1.44-.58a13.59,13.59,0,0,1-1.65-.76,3.89,3.89,0,0,1-1.34-1.17,3.4,3.4,0,0,1,.05-3.69,3.4,3.4,0,0,1,1.56-1.12,6.3,6.3,0,0,1,4-.06,6.72,6.72,0,0,1,1.62.77,6,6,0,0,1,1.23,1.1l-1.61,1.72a5,5,0,0,0-1.47-1.18,3.77,3.77,0,0,0-1.77-.46,1.8,1.8,0,0,0-1,.27.88.88,0,0,0-.4.78,1,1,0,0,0,.36.76,3.3,3.3,0,0,0,1,.61l1.35.56a15.47,15.47,0,0,1,1.87.88,4.38,4.38,0,0,1,1.39,1.18,3,3,0,0,1,.52,1.82,3.56,3.56,0,0,1-1.19,2.8,4.69,4.69,0,0,1-3.23,1.06,6.64,6.64,0,0,1-2.32-.39,6.33,6.33,0,0,1-1.85-1,8,8,0,0,1-1.33-1.33l1.69-1.69A9.34,9.34,0,0,0,267,287.82Z" transform="translate(-9.89)"/><path class="cls-6" d="M288,272v18.76h-3.11V272Zm-1.15,0h8.39v2.84H286.8Zm0,7.53h8.12v2.76H286.8Z" transform="translate(-9.89)"/><path class="cls-6" d="M299,272.27a1.84,1.84,0,0,1,1.28-.51,1.79,1.79,0,0,1,1.3.51,1.76,1.76,0,0,1,0,2.5,1.76,1.76,0,0,1-1.3.52,1.81,1.81,0,0,1-1.28-.52,1.72,1.72,0,0,1,0-2.5Zm2.7,6.16v12.33h-2.84V278.43Z" transform="translate(-9.89)"/><path class="cls-6" d="M308.56,290.76h-2.87V278.43h2.87Zm2.92-9.73a2.07,2.07,0,0,0-.88-.16,1.77,1.77,0,0,0-1.18.37,2,2,0,0,0-.66,1,5.38,5.38,0,0,0-.2,1.54l-1-.57a6,6,0,0,1,.55-2.61,5,5,0,0,1,1.42-1.81,3,3,0,0,1,1.81-.67,4,4,0,0,1,1.26.2,2.07,2.07,0,0,1,1,.71l-1.39,2.44A4.21,4.21,0,0,0,311.48,281Z" transform="translate(-9.89)"/><path class="cls-6" d="M317.36,287.82a4.49,4.49,0,0,0,1.22.7,3.58,3.58,0,0,0,1.24.23,2,2,0,0,0,1.22-.35,1.17,1.17,0,0,0,.44-1,1.35,1.35,0,0,0-.35-.92,2.81,2.81,0,0,0-1-.67c-.41-.19-.89-.38-1.44-.58a13.59,13.59,0,0,1-1.65-.76,3.89,3.89,0,0,1-1.34-1.17,3.4,3.4,0,0,1,0-3.69,3.4,3.4,0,0,1,1.56-1.12,6.3,6.3,0,0,1,4-.06,6.38,6.38,0,0,1,1.62.77,6,6,0,0,1,1.23,1.1l-1.61,1.72a5,5,0,0,0-1.47-1.18,3.77,3.77,0,0,0-1.77-.46,1.8,1.8,0,0,0-1,.27.88.88,0,0,0-.4.78,1,1,0,0,0,.36.76,3.3,3.3,0,0,0,1,.61l1.35.56a16.39,16.39,0,0,1,1.88.88,4.45,4.45,0,0,1,1.38,1.18,3,3,0,0,1,.52,1.82,3.56,3.56,0,0,1-1.19,2.8,4.69,4.69,0,0,1-3.23,1.06,6.64,6.64,0,0,1-2.32-.39,6.33,6.33,0,0,1-1.85-1,8,8,0,0,1-1.33-1.33l1.69-1.69A9.34,9.34,0,0,0,317.36,287.82Z" transform="translate(-9.89)"/><path class="cls-6" d="M332.25,278.43V281h-7v-2.55Zm-2.06-4.29v16.62h-2.87V274.14Z" transform="translate(-9.89)"/></g></g></svg>